<svg xmlns="http://www.w3.org/2000/svg" width="102" height="28" viewBox="0 0 102 28" fill="none"
  class="nav_brand_logo">
  <g clip-path="url(#clip0_2655_55898)">
    <path
      d="M25.2622 0.920849L20.649 27.3448C20.617 27.5279 20.5201 27.6941 20.3755 27.8139C20.2309 27.9337 20.0478 27.9995 19.8586 27.9996H5.41444C5.22522 27.9995 5.04212 27.9337 4.89749 27.8139C4.75287 27.6941 4.656 27.5279 4.62402 27.3448L0.0115399 0.920849C-0.008202 0.80778 -0.00256068 0.691829 0.0280552 0.58112C0.058671 0.470412 0.113529 0.367599 0.1888 0.27987C0.264071 0.192142 0.357932 0.121609 0.463839 0.0732013C0.569746 0.0247937 0.685145 -0.000299339 0.801961 -0.000370008H5.14963C5.33851 -0.000352025 5.52132 0.0650902 5.6659 0.184443C5.81047 0.303796 5.90755 0.469393 5.94003 0.652114L9.2638 19.3288C9.58478 21.0625 10.9385 22.2177 12.6582 22.2177C14.3329 22.2177 15.6898 21.0625 16.0525 19.3288L19.3313 0.652114C19.3635 0.468971 19.4606 0.302897 19.6053 0.183212C19.7501 0.0635272 19.9333 -0.00205095 20.1226 -0.00194764H24.4686C24.5859 -0.00237714 24.7018 0.0224009 24.8082 0.0707002C24.9146 0.118999 25.009 0.189633 25.0847 0.2776C25.1603 0.365567 25.2154 0.468758 25.2461 0.579889C25.2768 0.69102 25.2823 0.807402 25.2622 0.920849Z"
      fill="currentColor"></path>
    <path
      d="M47.8033 28H35.3099C30.5322 28 26.6355 24.1969 26.6563 19.5056C26.6788 14.4669 30.1125 11.1106 35.2546 11.1106H40.6511C41.0133 11.1118 41.3722 11.0424 41.7069 10.9065C42.0417 10.7706 42.3457 10.5708 42.6013 10.3188C42.857 10.0668 43.0592 9.76748 43.1964 9.43822C43.3335 9.10895 43.4028 8.75625 43.4003 8.40052C43.381 6.82443 42.3001 5.77793 40.6856 5.77793H31.0786C30.8658 5.77793 30.6617 5.69488 30.5112 5.54709C30.3607 5.39931 30.2762 5.19889 30.2762 4.98988V0.788044C30.2762 0.579042 30.3607 0.378582 30.5112 0.230795C30.6617 0.0830084 30.8658 0 31.0786 0H47.8033C48.0161 0 48.2202 0.0830084 48.3707 0.230795C48.5212 0.378582 48.6057 0.579042 48.6057 0.788044V27.2119C48.6057 27.3154 48.585 27.4179 48.5447 27.5135C48.5043 27.6091 48.4452 27.696 48.3707 27.7692C48.2962 27.8424 48.2077 27.9004 48.1104 27.94C48.013 27.9796 47.9087 28 47.8033 28ZM43.3978 19.5553C43.3978 17.9556 42.3113 16.8885 40.6823 16.8885H35.2514C33.6224 16.8885 32.5359 17.9556 32.5359 19.5553C32.5359 21.155 33.6224 22.222 35.2514 22.222H40.6823C42.3145 22.222 43.3978 21.155 43.3978 19.5553Z"
      fill="currentColor"></path>
    <path
      d="M75.8788 10.8884V27.2119C75.8788 27.4209 75.7943 27.6214 75.6438 27.7692C75.4933 27.917 75.2892 28 75.0764 28H70.7977C70.5849 28 70.3808 27.917 70.2303 27.7692C70.0798 27.6214 69.9953 27.4209 69.9953 27.2119V10.9254C69.9953 8.08846 67.661 5.77083 64.7745 5.77793C61.6602 5.78502 59.5859 7.82685 59.5859 10.8884V27.2119C59.5859 27.4209 59.5013 27.6214 59.3509 27.7692C59.2004 27.917 58.9963 28 58.7834 28H54.5056C54.2928 28 54.0886 27.917 53.9382 27.7692C53.7877 27.6214 53.7031 27.4209 53.7031 27.2119V0.788044C53.7031 0.579042 53.7877 0.378582 53.9382 0.230795C54.0886 0.0830084 54.2928 0 54.5056 0H64.7906C71.4437 0 75.8788 4.35551 75.8788 10.8884Z"
      fill="currentColor"></path>
    <path
      d="M100.587 28H88.0912C83.3134 28 79.4167 24.1969 79.4376 19.5056C79.4601 14.4669 82.8937 11.1106 88.0359 11.1106H93.4323C93.7946 11.1118 94.1535 11.0424 94.4883 10.9065C94.8231 10.7706 95.1272 10.5708 95.3829 10.3188C95.6386 10.0668 95.8409 9.76756 95.9782 9.43829C96.1154 9.10903 96.1848 8.75629 96.1823 8.40052C96.1623 6.82443 95.0814 5.77793 93.4668 5.77793H83.8623C83.6495 5.77793 83.4454 5.69488 83.2949 5.54709C83.1444 5.39931 83.0599 5.19889 83.0599 4.98988V0.788044C83.0599 0.579042 83.1444 0.378582 83.2949 0.230795C83.4454 0.0830084 83.6495 0 83.8623 0H100.587C100.8 0 101.004 0.0830084 101.154 0.230795C101.305 0.378582 101.389 0.579042 101.389 0.788044V27.2119C101.389 27.3154 101.369 27.4179 101.328 27.5135C101.288 27.6091 101.229 27.696 101.154 27.7692C101.08 27.8424 100.991 27.9004 100.894 27.94C100.797 27.9796 100.692 28 100.587 28ZM96.1847 19.5553C96.1847 17.9556 95.0982 16.8885 93.4692 16.8885H88.0383C86.4093 16.8885 85.3228 17.9556 85.3228 19.5553C85.3228 21.155 86.4093 22.222 88.0383 22.222H93.4676C95.0982 22.222 96.1847 21.155 96.1847 19.5553Z"
      fill="currentColor"></path>
  </g>
  <defs>
    <clipPath id="clip0_2655_55898">
      <rect width="101.397" height="28" fill="currentColor"></rect>
    </clipPath>
  </defs>
</svg>